# xmcd
#
# Track frame offsets:
#	150
#	5598
#	34463
#	63844
#	123175
#
# Disc length: 2654 seconds
#
# Revision: 1
# Processed by: cddbd v1.5.1PL2 Copyright (c) Steve Scherf et al.
# Submitted via: audiograbber 1.83.01
#
DISCID=3a0a5c05
DTITLE=Jörg Löhr - Spielen Sie Ihre Stärken aus!
DYEAR=2005
DGENRE=Vocal
TTITLE0=Einleitung
TTITLE1=Ihr Potenzial - die Basis für Ihren Erfolg
TTITLE2=Wegbereiter - Wegbegleiter: das persönliche Lebenskonzept
TTITLE3=Unser Gehirn braucht Ziele
TTITLE4=Begeisterung - der Brennstoff für erfolgreiches Handeln
EXTD=
EXTT0=
EXTT1=
EXTT2=
EXTT3=
EXTT4=
PLAYORDER=
